# xmcd
#
# Track frame offsets:
#	150
#	16997
#	30105
#	46790
#	64793
#	76666
#	94577
#	103908
#	121698
#	134390
#	145823
#	158840
#	167739
#	180168
#	194953
#	212682
#	228533
#
# Disc length: 3143
#
# Revision: 2
# Processed by: cddbd v1.5.1PL0 Copyright (c) Steve Scherf et al.
# Submitted via: CDValet v3.31 - Copyright (c) 1997 Greg Leichner
# Normalized: r1:DSETVAR1,TDELIM( - )
#
DISCID=d50c4511
DTITLE=Various Artist - Revival Volume II
DYEAR=1900
DGENRE=
TTITLE0=Trailer Bride - Graveyard
TTITLE1=Larry Sloane Doggett - December 99
TTITLE2=Lou Ford - So Far Gone
TTITLE3=Drive By Truckers - Nine Bullets
TTITLE4=Gladys - Her House
TTITLE5=Dirtball - Ends of the Earth
TTITLE6=Mercury Dime - Are You Positive
TTITLE7=Continental Drifters - Christopher Columbus...
TTITLE8=Star Room Boys - The Daydreamer
TTITLE9=Noah - Skillet
TTITLE10=Burnley Brothers - All Bark and No Bite
TTITLE11=Grace Braun - Liftin' Me Up
TTITLE12=The Tremblers - Get Back in the Car
TTITLE13=Red Star Belgrade - Favorite Thing
TTITLE14=The Quinsonics - Out of Town
TTITLE15=Grand National - Money and Love
TTITLE16=Whiskeytown - Busted
EXTD=
EXTT0=
EXTT1=
EXTT2=
EXTT3=
EXTT4=
EXTT5=
EXTT6=
EXTT7=
EXTT8=
EXTT9=
EXTT10=
EXTT11=
EXTT12=
EXTT13=
EXTT14=
EXTT15=
EXTT16=
PLAYORDER=
